<svg width="580" height="400.00000000000006" xmlns="http://www.w3.org/2000/svg">
 <!-- Created with Method Draw - http://github.com/duopixel/Method-Draw/ -->
 <g>
  <title>background</title>
  <rect fill="#fff" id="canvas_background" height="402" width="582" y="-1" x="-1"/>
  <g display="none" overflow="visible" y="0" x="0" height="100%" width="100%" id="canvasGrid">
   <rect fill="url(#gridpattern)" stroke-width="0" y="0" x="0" height="100%" width="100%"/>
  </g>
 </g>
 <g>
  <title>Layer 1</title>
  <path transform="rotate(-180 290,200.00001525878903) " stroke="#000" id="svg_1" d="m430.118662,210.208722l48.347216,-25.570647c-0.950416,-9.474207 -2.787234,-18.664771 -5.085091,-27.699547l-53.706846,-7.437081c-4.648511,-11.198049 -10.787037,-21.583928 -18.002749,-31.117677l20.472329,-50.349908c-6.731675,-6.565094 -14.001617,-12.550556 -21.653344,-18.058075l-45.604081,28.629672c-10.694207,-5.623853 -22.216186,-9.895243 -34.311515,-12.638538l-16.480604,-51.057032c-4.674056,-0.352954 -9.346767,-0.725853 -14.113407,-0.725853s-9.426137,0.364287 -14.114246,0.725853l-16.317334,50.604778c-12.419554,2.655386 -24.19594,6.976389 -35.165034,12.669655l-44.893874,-28.208535c-7.642044,5.507519 -14.911682,11.492996 -21.642822,18.058075l19.908936,48.959148c-7.759536,9.9449 -14.256024,20.917676 -19.135468,32.743711l-52.011372,7.19321c-2.28816,9.022083 -4.134588,18.202907 -5.07522,27.698418l46.681484,24.698443c0.528874,13.001363 2.684417,25.601808 6.501409,37.467513l-35.213996,38.935993c4.096321,8.496248 8.656909,16.735802 13.932769,24.466078l51.844671,-11.130011c8.500325,9.248775 18.185008,17.352209 28.870097,24.053466l-1.965107,53.044849c8.514624,3.840208 17.361448,7.054153 26.478383,9.62312l32.799154,-42.160069c5.819584,0.74296 11.71269,1.243366 17.723448,1.243366c6.51154,0 12.879478,-0.588257 19.144875,-1.449071l32.96995,42.393953c9.131248,-2.566 17.964598,-5.779771 26.478354,-9.620197l-2.003026,-53.997465c10.184293,-6.593331 19.419139,-14.48132 27.560692,-23.387112l53.19298,11.413712c5.275889,-7.729089 9.837099,-15.959873 13.931944,-24.463227l-36.354545,-40.210809c3.492274,-11.239167 5.443067,-23.103686 6.011004,-35.34216l-0.000014,0zm-80.356662,61.422924l-22.922254,14.922357l-14.098717,-21.661678c-7.334362,2.821117 -15.230639,4.536521 -23.554596,4.536521c-36.354385,0 -65.816228,-29.473437 -65.816228,-65.822198c0,-36.350237 29.461842,-65.812269 65.816228,-65.812269c36.344891,0 65.817502,29.462032 65.817502,65.812269c0,18.164553 -7.358445,34.585118 -19.252844,46.499134l14.010909,21.525862z" fill="#fff"/>
  <ellipse stroke="#000" ry="97.332871" rx="97.332871" id="svg_2" cy="199.999998" cx="289.999999" fill-opacity="null" stroke-opacity="null" fill="#fff"/>
 </g>
</svg>